<svg xmlns="http://www.w3.org/2000/svg" width="512" height="512"><rect id="backgroundrect" width="100%" height="100%" x="0" y="0" fill="none" stroke="none"/>
  
<g class="currentLayer" style=""><title>Layer 1</title><path id="cookie" d="M276,254 a20,20 0 1 1 -20,-20 A20,20 0 0 1 276,254 zM416,0 a20,20 0 1 0 20,20 A20,20 0 0 0 416,0 zm66,81 a20,20 0 1 0 20,20 A20,20 0 0 0 482,81 zM356,291 a20,20 0 1 0 20,20 A20,20 0 0 0 356,291 zM136,196 a20,20 0 1 0 20,-20 A20,20 0 0 0 136,196 zm20,95 a20,20 0 1 0 20,20 A20,20 0 0 0 156,291 zm100,63 a20,20 0 1 0 20,20 A20,20 0 0 0 256,354 zm64.23,131.172 A73.467,73.467 0 0 1 372.2,463.461 c0.18400000000000002,0 0.36700000000000005,0 0.551,0 a20,20 0 0 0 0.11700000000000002,-40 c-0.22300000000000003,0 -0.44100000000000006,0 -0.6640000000000001,0 a113.7,113.7 0 0 0 -80.43,33.594 a50.3,50.3 0 0 1 -71.555,0 a113.71,113.71 0 0 0 -80.43,-33.594 c-0.32400000000000007,0 -0.6480000000000001,0 -0.973,0 a50.295,50.295 0 0 1 -50.285,-50.594 a113.69200000000001,113.69200000000001 0 0 0 -33.59,-81.094 a50.291,50.291 0 0 1 0,-71.551 a113.715,113.715 0 0 0 33.59,-81.094 a50.3,50.3 0 0 1 50.594,-50.6 a113.821,113.821 0 0 0 81.094,-33.59 a49.909,49.909 0 0 1 28.422,-14.418 A101.12,101.12 0 0 0 248,52 a97.987,97.987 0 0 0 28.137,69.109 A95.824,95.824 0 0 0 345,150 q1.576,0 3.164,-0.05500000000000001 a96.35,96.35 0 0 0 26.426,53.363 C392.758,221.809 417.735,232 444.914,232 a95.244,95.244 0 0 0 19.832,-2.02 a50.289,50.289 0 0 1 -7.691,61.793 a113.715,113.715 0 0 0 -33.59,81.094 a20,20 0 0 0 20,19.883 h0.125 a20,20 0 0 0 19.879,-20.117 a73.458,73.458 0 0 1 21.707,-52.4 a90.261,90.261 0 0 0 1.2,-127.215 a20.058,20.058 0 0 0 -21.836,-4.574 A52.9,52.9 0 0 1 444.914,192 C411.356,192 387,167.777 387,134.4 V128 a20,20 0 0 0 -5.859,-14.145 l-1,-1 a20,20 0 0 0 -19.547,-5.109 A57.836,57.836 0 0 1 345,110 c-31.43,0 -57,-26.02 -57,-58 a55.407,55.407 0 0 1 4.277,-21.859 a20,20 0 0 0 -13.32,-27.188 A90.4,90.4 0 0 0 191.77,26.828 A73.466,73.466 0 0 1 139.8,48.539 c-0.14100000000000001,0 -0.28500000000000003,0 -0.43000000000000005,0 a90.3,90.3 0 0 0 -90.832,90.832 a73.458,73.458 0 0 1 -21.707,52.4 a90.3,90.3 0 0 0 0,128.461 a73.458,73.458 0 0 1 21.707,52.4 a90.293,90.293 0 0 0 90.277,90.832 h0.555 a73.343,73.343 0 0 1 52.4,21.707 a90.3,90.3 0 0 0 128.461,0 zm0,0 " fill="#000000" class="selected" fill-opacity="1"/></g></svg>